<svg id="visual" viewBox="0 0 960 540" width="960" height="540" xmlns="http://www.w3.org/2000/svg" xmlns:xlink="http://www.w3.org/1999/xlink" version="1.1"><path d="M0 430L16 431.5C32 433 64 436 96 436.2C128 436.3 160 433.7 192 436.8C224 440 256 449 288 446.3C320 443.7 352 429.3 384 429.7C416 430 448 445 480 451C512 457 544 454 576 449.7C608 445.3 640 439.7 672 438.7C704 437.7 736 441.3 768 447C800 452.7 832 460.3 864 460.5C896 460.7 928 453.3 944 449.7L960 446L960 541L944 541C928 541 896 541 864 541C832 541 800 541 768 541C736 541 704 541 672 541C640 541 608 541 576 541C544 541 512 541 480 541C448 541 416 541 384 541C352 541 320 541 288 541C256 541 224 541 192 541C160 541 128 541 96 541C64 541 32 541 16 541L0 541Z" fill="#dbe6e1"></path><path d="M0 450L16 451.2C32 452.3 64 454.7 96 458.5C128 462.3 160 467.7 192 471.3C224 475 256 477 288 473.8C320 470.7 352 462.3 384 459C416 455.7 448 457.3 480 463.2C512 469 544 479 576 481.3C608 483.7 640 478.3 672 477.8C704 477.3 736 481.7 768 477.3C800 473 832 460 864 455.3C896 450.7 928 454.3 944 456.2L960 458L960 541L944 541C928 541 896 541 864 541C832 541 800 541 768 541C736 541 704 541 672 541C640 541 608 541 576 541C544 541 512 541 480 541C448 541 416 541 384 541C352 541 320 541 288 541C256 541 224 541 192 541C160 541 128 541 96 541C64 541 32 541 16 541L0 541Z" fill="#74a48a"></path><path d="M0 511L16 506.3C32 501.7 64 492.3 96 489.8C128 487.3 160 491.7 192 494C224 496.3 256 496.7 288 493.7C320 490.7 352 484.3 384 485.7C416 487 448 496 480 501.2C512 506.3 544 507.7 576 509.7C608 511.7 640 514.3 672 512C704 509.7 736 502.3 768 499.3C800 496.3 832 497.7 864 500C896 502.3 928 505.7 944 507.3L960 509L960 541L944 541C928 541 896 541 864 541C832 541 800 541 768 541C736 541 704 541 672 541C640 541 608 541 576 541C544 541 512 541 480 541C448 541 416 541 384 541C352 541 320 541 288 541C256 541 224 541 192 541C160 541 128 541 96 541C64 541 32 541 16 541L0 541Z" fill="#006434"></path></svg>
