<svg id="visual" viewBox="0 0 1920 140" width="1920" height="140" xmlns="http://www.w3.org/2000/svg" xmlns:xlink="http://www.w3.org/1999/xlink" version="1.1"><path d="M0 27L64 39.8C128 52.7 256 78.3 384 93C512 107.7 640 111.3 768 105C896 98.7 1024 82.3 1152 75.8C1280 69.3 1408 72.7 1536 78.8C1664 85 1792 94 1856 98.5L1920 103L1920 141L1856 141C1792 141 1664 141 1536 141C1408 141 1280 141 1152 141C1024 141 896 141 768 141C640 141 512 141 384 141C256 141 128 141 64 141L0 141Z" fill="#fafafa" stroke-linecap="round" stroke-linejoin="miter"></path></svg>