<svg id="visual" viewBox="0 0 960 140" width="960" height="140" xmlns="http://www.w3.org/2000/svg" xmlns:xlink="http://www.w3.org/1999/xlink" version="1.1"><path d="M0 25L120 35L240 19L360 28L480 19L600 35L720 46L840 33L960 46L960 0L840 0L720 0L600 0L480 0L360 0L240 0L120 0L0 0Z" fill="#fafafa"></path><path d="M0 40L120 56L240 42L360 54L480 43L600 65L720 57L840 47L960 58L960 44L840 31L720 44L600 33L480 17L360 26L240 17L120 33L0 23Z" fill="#b6d5c3"></path><path d="M0 92L120 82L240 70L360 85L480 112L600 112L720 91L840 74L960 109L960 56L840 45L720 55L600 63L480 41L360 52L240 40L120 54L0 38Z" fill="#72b08e"></path><path d="M0 141L120 141L240 141L360 141L480 141L600 141L720 141L840 141L960 141L960 107L840 72L720 89L600 110L480 110L360 83L240 68L120 80L0 90Z" fill="#1d8b5d"></path></svg>