<svg id="visual" viewBox="0 0 960 140" width="960" height="140" xmlns="http://www.w3.org/2000/svg" xmlns:xlink="http://www.w3.org/1999/xlink" version="1.1"><path d="M0 101L16 102C32 103 64 105 96 103C128 101 160 95 192 91.5C224 88 256 87 288 88.7C320 90.3 352 94.7 384 93.5C416 92.3 448 85.7 480 83.7C512 81.7 544 84.3 576 88C608 91.7 640 96.3 672 95C704 93.7 736 86.3 768 83.3C800 80.3 832 81.7 864 83.7C896 85.7 928 88.3 944 89.7L960 91L960 141L944 141C928 141 896 141 864 141C832 141 800 141 768 141C736 141 704 141 672 141C640 141 608 141 576 141C544 141 512 141 480 141C448 141 416 141 384 141C352 141 320 141 288 141C256 141 224 141 192 141C160 141 128 141 96 141C64 141 32 141 16 141L0 141Z" fill="#fafafa"></path><path d="M0 93L16 95.7C32 98.3 64 103.7 96 104C128 104.3 160 99.7 192 99.3C224 99 256 103 288 104.8C320 106.7 352 106.3 384 107.7C416 109 448 112 480 111.5C512 111 544 107 576 103.2C608 99.3 640 95.7 672 96.3C704 97 736 102 768 105.3C800 108.7 832 110.3 864 111.2C896 112 928 112 944 112L960 112L960 141L944 141C928 141 896 141 864 141C832 141 800 141 768 141C736 141 704 141 672 141C640 141 608 141 576 141C544 141 512 141 480 141C448 141 416 141 384 141C352 141 320 141 288 141C256 141 224 141 192 141C160 141 128 141 96 141C64 141 32 141 16 141L0 141Z" fill="#b6d5c3"></path><path d="M0 120L16 120.3C32 120.7 64 121.3 96 122C128 122.7 160 123.3 192 123.5C224 123.7 256 123.3 288 123.3C320 123.3 352 123.7 384 120.7C416 117.7 448 111.3 480 108.2C512 105 544 105 576 108C608 111 640 117 672 120C704 123 736 123 768 120.7C800 118.3 832 113.7 864 113C896 112.3 928 115.7 944 117.3L960 119L960 141L944 141C928 141 896 141 864 141C832 141 800 141 768 141C736 141 704 141 672 141C640 141 608 141 576 141C544 141 512 141 480 141C448 141 416 141 384 141C352 141 320 141 288 141C256 141 224 141 192 141C160 141 128 141 96 141C64 141 32 141 16 141L0 141Z" fill="#72b08e"></path><path d="M0 127L16 127.7C32 128.3 64 129.7 96 128.2C128 126.7 160 122.3 192 122.2C224 122 256 126 288 128C320 130 352 130 384 128.7C416 127.3 448 124.7 480 122.7C512 120.7 544 119.3 576 121.2C608 123 640 128 672 129.8C704 131.7 736 130.3 768 128.5C800 126.7 832 124.3 864 124.5C896 124.7 928 127.3 944 128.7L960 130L960 141L944 141C928 141 896 141 864 141C832 141 800 141 768 141C736 141 704 141 672 141C640 141 608 141 576 141C544 141 512 141 480 141C448 141 416 141 384 141C352 141 320 141 288 141C256 141 224 141 192 141C160 141 128 141 96 141C64 141 32 141 16 141L0 141Z" fill="#1d8b5d"></path></svg>