<svg id="visual" viewBox="0 0 1920 200" width="1920" height="200" xmlns="http://www.w3.org/2000/svg" xmlns:xlink="http://www.w3.org/1999/xlink" version="1.1"><path d="M0 127L53.3 124C106.7 121 213.3 115 320 121.3C426.7 127.7 533.3 146.3 640 142.7C746.7 139 853.3 113 960 114C1066.7 115 1173.3 143 1280 140.5C1386.7 138 1493.3 105 1600 96.3C1706.7 87.7 1813.3 103.3 1866.7 111.2L1920 119L1920 201L1866.7 201C1813.3 201 1706.7 201 1600 201C1493.3 201 1386.7 201 1280 201C1173.3 201 1066.7 201 960 201C853.3 201 746.7 201 640 201C533.3 201 426.7 201 320 201C213.3 201 106.7 201 53.3 201L0 201Z" fill="#FAFAFA" stroke-linecap="round" stroke-linejoin="miter"></path></svg>