<svg id="visual" viewBox="0 0 960 320" width="960" height="320" xmlns="http://www.w3.org/2000/svg" xmlns:xlink="http://www.w3.org/1999/xlink" version="1.1"><path d="M0 294L32 296.8C64 299.7 128 305.3 192 308.5C256 311.7 320 312.3 384 309.7C448 307 512 301 576 297.3C640 293.7 704 292.3 768 295.7C832 299 896 307 928 311L960 315L960 321L928 321C896 321 832 321 768 321C704 321 640 321 576 321C512 321 448 321 384 321C320 321 256 321 192 321C128 321 64 321 32 321L0 321Z" fill="#fafafa" stroke-linecap="round" stroke-linejoin="miter"></path></svg>