<svg id="visual" viewBox="0 0 960 200" width="960" height="200" xmlns="http://www.w3.org/2000/svg" xmlns:xlink="http://www.w3.org/1999/xlink" version="1.1"><path d="M0 132L22.8 133C45.7 134 91.3 136 137 134.7C182.7 133.3 228.3 128.7 274 120.5C319.7 112.3 365.3 100.7 411.2 87.8C457 75 503 61 548.8 59.8C594.7 58.7 640.3 70.3 686 70.7C731.7 71 777.3 60 823 65.3C868.7 70.7 914.3 92.3 937.2 103.2L960 114L960 201L937.2 201C914.3 201 868.7 201 823 201C777.3 201 731.7 201 686 201C640.3 201 594.7 201 548.8 201C503 201 457 201 411.2 201C365.3 201 319.7 201 274 201C228.3 201 182.7 201 137 201C91.3 201 45.7 201 22.8 201L0 201Z" fill="#fa7268"></path><path d="M0 82L22.8 91.5C45.7 101 91.3 120 137 128C182.7 136 228.3 133 274 119.5C319.7 106 365.3 82 411.2 83.3C457 84.7 503 111.3 548.8 114.8C594.7 118.3 640.3 98.7 686 99C731.7 99.3 777.3 119.7 823 129.8C868.7 140 914.3 140 937.2 140L960 140L960 201L937.2 201C914.3 201 868.7 201 823 201C777.3 201 731.7 201 686 201C640.3 201 594.7 201 548.8 201C503 201 457 201 411.2 201C365.3 201 319.7 201 274 201C228.3 201 182.7 201 137 201C91.3 201 45.7 201 22.8 201L0 201Z" fill="#eb5967"></path><path d="M0 126L22.8 134.3C45.7 142.7 91.3 159.3 137 166.7C182.7 174 228.3 172 274 160.5C319.7 149 365.3 128 411.2 128.5C457 129 503 151 548.8 158.8C594.7 166.7 640.3 160.3 686 147.2C731.7 134 777.3 114 823 104.3C868.7 94.7 914.3 95.3 937.2 95.7L960 96L960 201L937.2 201C914.3 201 868.7 201 823 201C777.3 201 731.7 201 686 201C640.3 201 594.7 201 548.8 201C503 201 457 201 411.2 201C365.3 201 319.7 201 274 201C228.3 201 182.7 201 137 201C91.3 201 45.7 201 22.8 201L0 201Z" fill="#da3f67"></path><path d="M0 180L22.8 179.2C45.7 178.3 91.3 176.7 137 174.8C182.7 173 228.3 171 274 165.8C319.7 160.7 365.3 152.3 411.2 156.2C457 160 503 176 548.8 183.3C594.7 190.7 640.3 189.3 686 183.5C731.7 177.7 777.3 167.3 823 163.3C868.7 159.3 914.3 161.7 937.2 162.8L960 164L960 201L937.2 201C914.3 201 868.7 201 823 201C777.3 201 731.7 201 686 201C640.3 201 594.7 201 548.8 201C503 201 457 201 411.2 201C365.3 201 319.7 201 274 201C228.3 201 182.7 201 137 201C91.3 201 45.7 201 22.8 201L0 201Z" fill="#c62368"></path></svg>